<svg xmlns="http://www.w3.org/2000/svg" xmlns:xlink="http://www.w3.org/1999/xlink" viewBox="0 0 253.76 253.76"><defs><style>.cls-1{fill:none;}.cls-2{clip-path:url(#clip-path);}.cls-3{fill:#a1d09f;}</style><clipPath id="clip-path" transform="translate(0.26 0.26)"><circle class="cls-1" cx="126.5" cy="126.5" r="126.5"/></clipPath></defs><g id="Layer_2" data-name="Layer 2"><g id="Layer_1-2" data-name="Layer 1"><g class="cls-2"><path class="cls-3" d="M-.24,253.5Q-.24,127.23-.26,1C-.26,0,0-.26,1-.26q126.29,0,252.55,0V251.12c0,2.38,0,2.38-2.38,2.38ZM83.27,64.76a1,1,0,0,0-.56.78h0a4.37,4.37,0,0,0-.51,4.86l.22.75.67,2.59v.87a.65.65,0,0,0-.07.75l-.46,1.89-.2.5-.17.71a12.77,12.77,0,0,0-1.53,3.26v0a.83.83,0,0,0-.47.76.57.57,0,0,0-.08.25,1.76,1.76,0,0,0-.92,1.08l-.14.24a2.79,2.79,0,0,1-2.52.62,14.82,14.82,0,0,0-4.7,0c-.87.14-1.41.48-1.07,1.48a3.42,3.42,0,0,0,0,1.59q-.19,9.38,0,18.76a9.41,9.41,0,0,0,0,2.65c0,.57-.08,1.14-.08,1.71q0,15.55,0,31.12a3.08,3.08,0,0,1-.34,2l-6,0c-.18,0-.35,0-.39.25l0,.78c0,.51-.1,1-.1,1.53s.17.76.71.56c5.22,0,10.45,0,15.68,0,8.43,0,16.87,0,25.3,0,1,.09.65-.53.54-1v-1.05c.38-1,0-1.35-1-1.28s-2.11,0-3.17,0c-.74,0-1.15-.35-1.12-1.13,0-.44,0-.88,0-1.32q0-27.72,0-55.45c0-.55.35-1.27-.45-1.62a.21.21,0,0,0-.19,0,9.82,9.82,0,0,0-6,0,.23.23,0,0,0-.2,0,1.88,1.88,0,0,0-.29,1.81l-.2,1.27a68.5,68.5,0,0,1-10.13.07,3,3,0,0,1-2-.56.2.2,0,0,0,.15-.06.8.8,0,0,0,.62-.41,14.66,14.66,0,0,0,7.67-7.76c2.9-6.49,1-13.8-3.62-18.79a8.84,8.84,0,0,0-4.41-2.79c1.47,2,3,3.57,2.63,6a4.14,4.14,0,0,0-1,1.68ZM203,173h0l.33.2a5.92,5.92,0,0,0,.93,2.33,10.1,10.1,0,0,0-.12-2.61v-1.56a4.22,4.22,0,0,0-.1-2.53c-.26.76-.52,1.52-.79,2.28l-.44.34a6.76,6.76,0,0,1-3.16.12l0-.49a1.51,1.51,0,0,0,0-1.31c0-1.68,0-3.36,0-5,.15-.16.28-.38.46-.46a6.27,6.27,0,0,1,7.57,3.11c.05.12.12.24.34.14v-3c0-.51-.22-.84-.78-.83-2.54.07-5.08-.14-7.61.14a9.2,9.2,0,0,0-3.39,0,2.42,2.42,0,0,0-1.8.09l1.79.68.45.62a.64.64,0,0,0,.31.61c0,3.85,0,7.71.07,11.56-.29,1.49-.61,3-2.46,3.46a4.91,4.91,0,0,0,1.41.15c2.77,0,5.55,0,8.32,0a25.24,25.24,0,0,0,4.17,0c.39-.06.93,0,1-.5.06-1.47,0-2.94,0-4.41a1,1,0,0,0-.45.59c-.63,1.45-1.29,2.91-2.91,3.48a5.45,5.45,0,0,1-5.95-1.12l-.2-.64a1.44,1.44,0,0,0-.28-1.35c0-1.31,0-2.61,0-3.92.22-1.08,1-1.21,1.85-1a12.45,12.45,0,0,1,1.34.46ZM49.71,168.39v.53c0,2.81-.1,5.62-.06,8.42,0,1.72-.43,3-2.23,3.57h7.22a3.39,3.39,0,0,1-2.23-2.22c0-1.63.1-3.25.08-4.88,0-1,.37-1.34,1.33-1.3a30.09,30.09,0,0,0,3.29,0,3.94,3.94,0,0,0,3.58-2.32,4.21,4.21,0,0,0-.45-4.39,4.64,4.64,0,0,0-3.93-2c-3.05,0-6.11,0-9.3,0,.44.49.74.62,2.14,1A9.94,9.94,0,0,1,49.71,168.39Zm37,9.25c0,1.72-1.31,2.41-2.59,3.28h5.51c-2.32-1.39-2.53-2.09-1.33-3.8.2-2.61.54-2.94,3-2.94,3.16,0,3.16,0,4.34,2.87,1,2.31.72,2.91-1.64,3.85h7.67c-1.55-.41-2.2-1.61-2.74-2.89-1.67-4-3.3-8-5-11.93-.3-.69-.29-1.91-1.16-1.87s-1.16,1.29-1.38,2c-1,3.46-2.59,6.72-3.79,10.11C87.5,176.86,87.47,177.54,86.72,177.64Zm-22.88-71.1a10.16,10.16,0,0,0,.85,2.33c.29.71.39,1.88,1.19,1.83s.84-1.25,1-2a.24.24,0,0,0,0-.2c.2-.14.38-.3.3-.58.5-1.23,1-2.46,1.5-3.67A2.3,2.3,0,0,0,68,101.3c-2-1.83-4.07-3.64-5.92-5.65a5.22,5.22,0,0,1-1.42-3.58c0-1.63,0-3.26,0-4.89,0-.91.34-1.27,1.25-1.25,1.67,0,3.34,0,5,0,1.13,0,1.6-.4,1.59-1.54s-.22-1.82-1.49-1.81c-1.45,0-2.91,0-4.36,0-2,0-2,0-2-2,0-5.19,0-10.39,0-15.59,0-1.12-.36-1.61-1.51-1.55s-2.2,0-3.3,0c-2.1.07-2.2.24-2.18,2.31,0,5.07.1,10.13,0,15.19,0,1.32-.54,1.66-1.74,1.63-1.8,0-3.61,0-5.41.06s-1,1.41-1.12,2.3.62,1,1.3,1c1.94,0,3.87,0,5.81,0,.79,0,1.11.28,1.09,1.09a27.72,27.72,0,0,1-.33,3.41c-1,6.3-1.82,12.63-3,18.9C48.9,116.25,47,123,45.05,129.8c-.16.56-.74,1.34.21,1.71s1.34-.35,1.63-1.1c.13-.32.27-.64.41-1q2.61-6.48,5.24-13a2.77,2.77,0,0,1,1-1.52c0,1,.1,1.74.1,2.52q0,14.86,0,29.72c0,3.24-.18,2.71,2.77,2.73s4.17-1.14,4.17-4.12V102.87A8.64,8.64,0,0,1,61,99.81C62.23,102.09,62.82,104.41,63.84,106.54ZM192,148.86h17.17c.81,0,1.55-.1,1.44-1.21-.08-.92.43-2.21-1.26-2.16-1.14,0-1.35-.54-1.34-1.55,0-6,0-12.07,0-18.1,0-2.73,0-5.46,0-8.19,0-1.08-.37-1.62-1.56-1.51-1,.09-2,0-3,0-.63,0-1.14.1-1.23.85s-.64,1.09-1.39,1.09l-17.43,0c-.62,0-1.15-.16-1.2-.92-.06-.91-.57-1.18-1.42-1.13s-1.41,0-2.11,0c-2.06,0-2.16.13-2.16,2.17q0,12.62,0,25.22c0,1.71.09,2.08-1.83,2.09-.44,0-1,0-1.15.63-.53,1.81.05,2.67,1.9,2.68Zm-34.87-13.25v14.13c0,.61-.13,1.29.82,1.36,3.11.22,5.24-.62,5.21-4.37-.06-8.45,0-16.9,0-25.36,0-3.21-.34-2.6,2.65-3.48.9-.26,1.18,0,1.34.84.18,1,.46,1.88.66,2.83.15.71.51.83,1.14.56,1.09-.46,2.18-1,3.3-1.32s1.11-.9.78-1.72c-.39-1-.8-2-1.22-2.92a37.71,37.71,0,0,0-4.27-7.42,1.36,1.36,0,0,0-1.93-.55c-.78.41-1.27.88-.88,1.87s.59,1.85.86,2.77c.45,1.48.3,1.73-1.16,1.92a40.32,40.32,0,0,1-7.12.25c-.35,0-.87.14-1-.4s.35-.55.6-.79c6-5.66,11.57-11.68,15.83-18.81.44-.72.38-1.07-.39-1.38-1.58-.65-3.18-1.29-4.72-2-.84-.41-1.26-.27-1.64.56-.89,1.92-1.86,3.79-2.76,5.7a1.94,1.94,0,0,1-1.84,1.25l-5.55,0c-1,0-1-.41-.49-1.11,1.05-1.35,2.11-2.7,3.13-4.08a72.55,72.55,0,0,0,5.75-8.37c.53-1,.62-1.55-.66-1.9-1.48-.39-2.92-1-4.39-1.42-1.67-.53-1.69-.53-2.15,1.14a80.17,80.17,0,0,1-5.54,14.52,1.77,1.77,0,0,1-2.11,1.14c-.74-.12-1.48-.24-2.22-.31s-1.26.24-1,1.16c.31,1.28.66,2.56.86,3.86s.89,1.59,2.12,1.37c3.21-.58,6.38-1.31,9.53-2.12.4-.1.91-.42,1.2,0s-.16.74-.37,1.06c-1.76,2.69-3.67,5.27-5.56,7.87-1.63,2.24-3.48,3.65-6.39,3.05a2.44,2.44,0,0,0-.27,0c-.82,0-1.12.33-.95,1.12.37,1.63.74,3.26,1.07,4.9.16.77.53,1,1.3.84,2.28-.48,4.58-.88,6.86-1.36,1.6-.33,1.61-.37,1.61,1.32C157.12,126.45,157.11,131,157.11,135.61Zm49-37.1c0-4.53,0-9.07,0-13.6,0-1.23-.45-1.8-1.68-1.78a28.29,28.29,0,0,0-3.56.11c-.81.1-1.3.39-1.29,1.3,0,.67-.22,1.22-1,1.22l-13.07,0c-.57,0-1-.26-.93-.86.15-1.58-.85-1.79-2.05-1.8-.7,0-1.41,0-2.11,0-1.27-.07-1.88.49-1.81,1.78,0,.3,0,.61,0,.92-.11,8.63-.12,17.25.18,25.87.08,2.19.06,2.19,2.31,2.18h1.45c1.92,0,2,0,2-2,0-1.14.47-1.48,1.57-1.55,3.88-.24,7.74-.09,11.61,0,1.29,0,2,.37,2,1.77,0,.91.41,1.23,1.3,1.19,1.28,0,2.56-.06,3.83,0,1,.06,1.37-.34,1.36-1.37C206.06,107.49,206.09,103,206.08,98.51ZM182,72.32c0,2.59,0,5.19,0,7.78,0,.82.25,1.27,1.09,1.27,1.45,0,2.9,0,4.35,0,.89,0,1.31-.46,1.26-1.43-.09-2.1-.13-4.21-.14-6.32,0-3.12-.05-6.24,0-9.36,0-1-.32-1.34-1.29-1.29a28.19,28.19,0,0,1-3.56,0c-1.24-.1-1.73.32-1.7,1.6C182,67.13,182,69.73,182,72.32Zm-9.89,0h0c0-2.64,0-5.28,0-7.92,0-.93-.32-1.38-1.3-1.35-1.32,0-2.64,0-4,0-1.05,0-1.36.46-1.31,1.44.15,2.59-.14,5.17,0,7.76s.07,5.19,0,7.78c0,1.05.37,1.41,1.37,1.38,1.37,0,2.73,0,4.09,0,.87,0,1.14-.37,1.13-1.2C172.05,77.62,172.07,75,172.07,72.34Zm-65.25,91.71c1.94.73,2.11,2.31,2.12,3.94,0,3,0,6.07,0,9.11,0,1.68-.24,3.22-2.19,3.79h5c-1.16-.47-2.11-1-2.13-2.43l-.15-11c0-.21,0-.45.4-.51,3.86,4.41,7.2,9.36,11.29,13.84a6.8,6.8,0,0,0,.49-2.74c0-3.26,0-6.51,0-9.77,0-1.86.22-3.51,2.3-4.19H119c1.8.59,2.08,2,2.11,3.53,0,2.29,0,4.58,0,6.87a2.74,2.74,0,0,1-.21,1.64c-.54,0-.64-.46-.86-.74-2.63-3.36-5.24-6.74-7.87-10.1-.43-.54-.77-1.25-1.58-1.28C109.33,164,108.08,164.05,106.82,164.05Zm24,4.2c.39-.81.69-1.47,1-2.11a2.89,2.89,0,0,1,2.3-1.57c.66-.08,1.3-.21,2-.29,1.68-.21,1.76-.15,1.76,1.49,0,3.83,0,7.67,0,11.5,0,2.29-.32,2.75-2.48,3.6H143a2.81,2.81,0,0,1-2.27-2.81c-.05-4.27,0-8.55,0-12.82,0-.57.16-1,.87-1.08a5.32,5.32,0,0,1,6.08,3.7c.05.13.1.25.42.16-.06-1.13-.14-2.3-.19-3.47,0-.63-.36-.84-.94-.84H131.7c-.59,0-.93.23-.93.84C130.76,165.71,130.77,166.88,130.77,168.25Zm21.5,12.67h5.46c-1.1-.65-2.43-.87-2.12-2.24a13.38,13.38,0,0,1,1.19-3.74,1.63,1.63,0,0,1,.71-.76,4.7,4.7,0,0,1,6.06,2.36,5.34,5.34,0,0,1,.68,2.65c-.14,1.06-1.13,1.24-2.16,1.7h7.85a3.78,3.78,0,0,1-2.43-2.13c-1-2.21-1.9-4.45-2.83-6.68-1.07-2.56-2.12-5.12-3.18-7.68-.12-.29-.24-.6-.6-.64s-.52.26-.64.55c-1.31,3.3-2.58,6.63-3.95,9.91C155.32,176.59,154.91,179.37,152.27,180.92Zm22.59.07H189c.33,0,.64-.17.64-.53,0-1.45,0-2.89,0-4.34a8.39,8.39,0,0,0-.83,1.71,5.22,5.22,0,0,1-6,2.68c-1.91-.38-2.78-1.68-2.82-4.32s0-5.54,0-8.31c0-1.76.2-3.44,2.29-4.06h-7.76c2.36.93,2.65,1.32,2.66,3.57q0,5.09,0,10.16C177.18,179.51,176.75,180.06,174.86,181Zm-94.41-4.9c-.41.16-.36.47-.43.7-.84,2.6-2.78,4.09-5.46,3.74s-3.42-.85-3.52-3.48c-.13-3.17-.19-6.33-.06-9.5.07-1.58.25-3,2.15-3.45h-7c1.86.64,2.07,2.13,2.08,3.74,0,3.12,0,6.24,0,9.37,0,1.73-.39,3.12-2.34,3.65,4.69.12,9.33.12,14,.12a.58.58,0,0,0,.61-.58A22.16,22.16,0,0,0,80.45,176.09ZM153,134.77c-.1-1.67-.22-3.25-.28-4.83,0-.89-.44-1-1.08-.59a6.31,6.31,0,0,0-3.5,5.24c-.08,1.63,0,3.26-.06,4.88a5.08,5.08,0,0,1-1.68,3.88c-.6.53-1.39,1.15-.7,2s1.38,0,2-.38C151.51,142.62,152.89,139,153,134.77Zm2.06-60h0c2.12,0,4.23,0,6.34,0,.83,0,1.27-.24,1.17-1.13a6.94,6.94,0,0,1,0-.79c0-1.71,0-1.72-1.77-1.72-3.52,0-7,0-10.56,0-2.54,0-2.31-.47-2.37,2.43,0,1,.37,1.21,1.25,1.19C151.08,74.72,153.06,74.75,155,74.75Zm43.75-.28h0c2,0,4-.07,5.94,0,1.51.07,1.42-.83,1.46-1.85s-.22-1.59-1.45-1.56c-3.74.07-7.48,0-11.22,0-2.2,0-2.15,0-2.1,2.2,0,1,.44,1.19,1.3,1.17C194.74,74.45,196.77,74.47,198.79,74.47Zm-32.61,52.3c-.54,1.4-.14,2.67,0,4a58.06,58.06,0,0,0,2.21,9.75c.26.84.54,1,1.14.21.78-1.07,1.61-2.09,2.47-3.09a1,1,0,0,0,.15-1.4ZM73.56,75.25v0c1.4,0,2.81,0,4.22,0,.66,0,1-.22,1-.91a14,14,0,0,1,0-1.45c0-.71-.27-1-1-1-2.77,0-5.54,0-8.31,0-1.45,0-1,1.1-1.12,1.91s.07,1.48,1.17,1.44C70.83,75.22,72.19,75.25,73.56,75.25Zm26.2,0v0c1.19,0,2.38-.06,3.57,0s1.66-.2,1.59-1.43c-.06-1,.17-2-1.47-2a59,59,0,0,1-7.52-.11c-.71-.07-1.08.19-1.1.93a11.73,11.73,0,0,1-.1,1.32c-.12.93.3,1.26,1.2,1.24C97.21,75.22,98.49,75.25,99.76,75.25ZM177,74.48v0h1.59c.45,0,.68-.21.78-.7.46-2.3.05-2.82-2.27-2.82q-.85,0-1.71,0c-.32,0-.69.05-.7.45a7.07,7.07,0,0,0,.11,2.73c.31.72,1.36.21,2.07.34Zm-81.76,83.9a4.6,4.6,0,0,1-2.94,1.46A3.89,3.89,0,0,0,90,161.42c-.42.5-.42.8.27,1A4,4,0,0,0,95.26,158.38Z" transform="translate(0.26 0.26)"/><path class="cls-3" d="M93.39,117.65q0,12.22,0,24.44c0,1.7-.15,1.91-1.86,1.92-4.13,0-8.27,0-12.41,0-1.08,0-1.37-.49-1.36-1.45,0-2.38,0-4.76,0-7.13,0-1,.37-1.4,1.39-1.38,3.21,0,6.43,0,9.64,0,1.26,0,1.83-.33,1.64-1.62a3.48,3.48,0,0,1,0-.79c.14-1.15-.43-1.41-1.47-1.39-3.17.05-6.34,0-9.51,0-1.06,0-1.47-.28-1.54-1.37a48,48,0,0,1,0-8c.09-.92.45-1.18,1.32-1.17,3.26,0,6.52-.06,9.77,0,1.61,0,1.31-1,1.38-1.89s-.15-1.61-1.41-1.58c-3.21.08-6.43,0-9.64,0-1,0-1.37-.26-1.45-1.32a76.79,76.79,0,0,1-.07-8.31c0-1.36.65-1.65,1.89-1.62,3.08.07,6.16-.06,9.24.05,1.5.06,1.45-.75,1.5-1.79s-.13-1.64-1.39-1.62c-3.26.06-6.52,0-9.78,0-1.13,0-1.57-.31-1.54-1.49.07-2.6,0-5.2,0-7.8,0-.87.3-1.26,1.21-1.32a118.79,118.79,0,0,1,12.8-.08c1.4.06,1.64.64,1.63,1.85C93.38,101.18,93.39,109.42,93.39,117.65Z" transform="translate(0.26 0.26)"/><path class="cls-3" d="M77.86,86.46l1.83-1.53a21,21,0,0,0,5.36-6.42,4.71,4.71,0,0,0,.44-2.43c0-.48,0-1.13.61-1.09s.54.73.51,1.18a9.24,9.24,0,0,1-2.12,4.88,38.34,38.34,0,0,1-4.42,4.5L79,86.42C78.6,86.44,78.24,86.91,77.86,86.46Z" transform="translate(0.26 0.26)"/><path class="cls-3" d="M182.12,133.75c0-3.34,0-6.68,0-10,0-1.14.37-1.56,1.49-1.6,2.21-.08,2.42,0,2.47,2.24.14,6.55.15,13.09.07,19.64,0,1.09-.41,1.46-1.48,1.42-2.7-.08-2.52.33-2.52-2.45C182.11,139.9,182.12,136.83,182.12,133.75Z" transform="translate(0.26 0.26)"/><path class="cls-3" d="M202.18,124.82c0,6.38,0,12.75,0,19.12,0,.9-.06,1.5-1.24,1.49-2.09,0-2.3,0-2.34-1.38-.2-7-.4-13.9-.1-20.85,0-.74.33-1,1-1C202.15,122,202.17,122,202.18,124.82Z" transform="translate(0.26 0.26)"/><path class="cls-3" d="M193.75,133.87c0,3.38-.06,6.77,0,10.15,0,1.29-.56,1.45-1.58,1.42s-1.69.05-1.67-1.34c.06-6.86,0-13.71,0-20.57,0-.82.13-1.47,1.14-1.26.83.17,2.14-.5,2.1,1.31-.08,3.43,0,6.86,0,10.29Z" transform="translate(0.26 0.26)"/><path class="cls-3" d="M185,102.73a2.3,2.3,0,0,1-.4-1.49c0-3.52,0-7-.06-10.57,0-1.15.43-1.52,1.57-1.51,3.74.06,7.49,0,11.23,0,2.09,0,2.17,0,2.21,2.27.06,4.14.05,8.28.06,12.42,0,.7,0,1.41,0,2.11a1.18,1.18,0,0,1-1.31,1.31c-4.23.09-8.46.15-12.68,0-1,0-1.28-.57-.62-1.36,2-2.41,4.07-4.74,6.1-7.11.55-.64,1-.43,1.35.17.63,1.06,1.26,2.12,1.85,3.2a15.52,15.52,0,0,0,1.91,2.84c.49.56.88.55,1.08-.24a2,2,0,0,1,.06-.26c1.14-3.87,1.14-3.87-2.24-6-.34-.21-.68-.41-1-.65-1.34-1-1.41-1.28-.56-2.68a17.21,17.21,0,0,0,1.38-3.14c.31-.87,0-1.11-.83-1.1-1.23,0-2.47.07-3.69,0s-1.46.43-1.57,1.44a23.38,23.38,0,0,1-2.49,8.44A5.09,5.09,0,0,1,185,102.73Z" transform="translate(0.26 0.26)"/><path class="cls-3" d="M159.79,167.28a45,45,0,0,1,2.19,5.31c.2.55.1.85-.62.93-4.22.44-4.31.34-2.79-3.5A10.72,10.72,0,0,1,159.79,167.28Z" transform="translate(0.26 0.26)"/><path class="cls-3" d="M92,167.76c.67,1.65,1.35,3.31,2,5,.22.55.16,1-.57,1H90.13c-.49,0-.76-.17-.54-.73.67-1.73,1.33-3.48,2-5.22Z" transform="translate(0.26 0.26)"/><path class="cls-3" d="M52.32,165c.11-.34.21-.65.62-.77a4.54,4.54,0,0,1,4.34,1.56,4.37,4.37,0,0,1-.19,5A4.61,4.61,0,0,1,52.78,172c-.18-.08-.31-.3-.47-.45C52.32,169.37,52.32,167.16,52.32,165Z" transform="translate(0.26 0.26)"/><path class="cls-3" d="M90.89,161.37c1-.59,2-.29,2.91-1C93.3,161.51,93,161.6,90.89,161.37Z" transform="translate(0.26 0.26)"/></g></g></g></svg>