<svg xmlns="http://www.w3.org/2000/svg" viewBox="0 0 308 308"><defs><style>.cls-1{fill:#a1d09f;}.cls-2{fill:none;}</style></defs><g id="Layer_2" data-name="Layer 2"><g id="Layer_1-2" data-name="Layer 1"><path class="cls-1" d="M86.35,113.61c.9-.13,1.71-.3,2.53-.36a23.6,23.6,0,0,1,5,.14,4.4,4.4,0,0,1,.94.38,11.46,11.46,0,0,0,2.75-3.21,28.06,28.06,0,0,0,3.17-7.78,8.57,8.57,0,0,0-.56-5.59,6.77,6.77,0,0,1,.58-7.14c.36-.52.73-1,1.07-1.55a3.79,3.79,0,0,0,.4-3.53,10.6,10.6,0,0,0-1.92-3.13,10,10,0,0,1-1.08-1.46c.27.1.55.2.81.32a14.8,14.8,0,0,1,6,4.82,22.7,22.7,0,0,1,4.25,9.72,18.7,18.7,0,0,1-8.85,19.33,16,16,0,0,1-4,2l.06.17c.48-.07,1-.11,1.45-.21a3.4,3.4,0,0,1,1.19,0,33,33,0,0,0,3.29.3,81.63,81.63,0,0,0,9.12-.12l.72-.07c0-.33.08-.62.11-.91.06-.83.13-1.66.17-2.48,0-.36.15-.56.52-.6a24.87,24.87,0,0,1,7.36.09c.12,0,.24.06.46.12V183.6h6.52v3.88c-.55.15-49.09.2-50.15.05v-3.85h8c0-.47.07-.89.07-1.3q0-16.14,0-32.28V113.61ZM94.86,172a92.6,92.6,0,0,0,.06,11.55l.62,0,15.15,0c.4,0,.81,0,1.21,0s.93-.14,1.41-.22V121.08a10.73,10.73,0,0,0-1.07-.13c-1.51-.06-3-.16-4.52-.15-3.72,0-7.43.09-11.15.18a4,4,0,0,0-1.66.24v12.25c.2,0,.35.05.49.05H104c1.73,0,3.46,0,5.19.07a6.27,6.27,0,0,1,.77.1l-.22,3.82H95.2c-.66,1.86-.61,11.92.08,13.39h14.38a16.33,16.33,0,0,1,0,4.1H95.12a48.62,48.62,0,0,0,0,12.35c4.92,0,9.76,0,14.61.08V172Zm.08-56c.75-.52,1.46-.94,2.09-1.46a39.86,39.86,0,0,0,5.18-5,13.65,13.65,0,0,0,2.52-4.08,6.51,6.51,0,0,0,.44-3.18c0-.19-.16-.51-.29-.53a1.13,1.13,0,0,0-.66.22.68.68,0,0,0-.23.74,5,5,0,0,1-.45,3,14,14,0,0,1-1.55,2.65c-1.09,1.38-2.29,2.67-3.47,4A11.59,11.59,0,0,1,95.13,115C94.72,115.21,94.76,115.49,94.94,116Z"/><path class="cls-1" d="M57.54,168.85h-1.8a1.18,1.18,0,0,1-.14-1.22c1-3.5,2-7,2.94-10.52,1.56-5.67,2.85-11.4,3.93-17.18.58-3.08,1-6.2,1.44-9.31s1-6.46,1.45-9.69a47.07,47.07,0,0,0,.62-6.16H56.23V111c.75-.07,1.47-.19,2.19-.2,1.94,0,3.87,0,5.8,0,.53,0,1-.06,1.65-.09,0-.41.11-.78.11-1.14,0-1.31,0-2.62,0-3.92V88.52a22.63,22.63,0,0,1,8.21-.26c0,.84.14,1.61.14,2.38q0,9.51,0,19v1c.65.07,1.24.16,1.83.17,1.63,0,3.27,0,4.9,0,.77,0,1.55.08,2.37.13v3.47a4.85,4.85,0,0,1-2.47.42c-2.08,0-4.17,0-6.25,0a.84.84,0,0,0-.3.06,1.18,1.18,0,0,0-.07.3q0,3.84.07,7.69a4.55,4.55,0,0,0,1.38,3.24q2,2,4,4c1.08,1,2.21,2,3.32,3.07a6.47,6.47,0,0,1,.58.59,2.09,2.09,0,0,1,.39,2.25c-1,2.59-2,5.2-3,7.8a.92.92,0,0,1-.39.49c-.3.12-.45-.16-.57-.38a13.46,13.46,0,0,1-.83-1.6c-1.19-3-2.34-6-3.53-9-.31-.79-.68-1.56-1.1-2.51a5.18,5.18,0,0,0-.34,1.57c0,.25,0,.5,0,.75V175q0,5.73,0,11.46a4.08,4.08,0,0,1-2.28,3.87,3,3,0,0,1-1.28.42c-1.52.05-3,0-4.66,0,0-.47-.12-.91-.13-1.35,0-2.09,0-4.17,0-6.26V150a5.1,5.1,0,0,0,0-.68.26.26,0,0,0-.49-.13,3.82,3.82,0,0,0-.24.55Q61.58,158.89,57.9,168Z"/><path class="cls-1" d="M249.44,185.28l3.06.38v3.54a5.36,5.36,0,0,1-2,.3c-1.61,0-3.21,0-4.82,0h-34.9c-.76,0-1.53-.11-2.33-.16v-3.65l3.36-.37a8.51,8.51,0,0,0,.25-2.55q0-11.69,0-23.37c0-2.21,0-4.42,0-6.63a11.46,11.46,0,0,1,.1-1.43.79.79,0,0,1,.73-.74l.22,0a53.49,53.49,0,0,1,5.37,0l.52,2.27h23.31l.46-2.15h6.53c.05.88.13,1.72.13,2.57q0,15.53,0,31.06Zm-30.66-27.21v20.16c0,1.71,0,3.41,0,5.12,0,.64.1,1.28.15,2h4.34c.53-2.06.36-25.83-.19-27.42A8.41,8.41,0,0,0,218.78,158.07Zm23.64-.23c-1.44,0-2.75-.05-4.13,0,0,1-.14,2-.15,2.93,0,4.42-.08,8.84,0,13.26,0,3.41.19,6.82.31,10.24a8.75,8.75,0,0,0,.14,1h3.91c0-.28,0-.5,0-.72l0-24.41C242.53,159.43,242.46,158.68,242.42,157.84ZM228.8,158c-.14,1.55-.08,26.77.07,27.33h3.6V158Z"/><path class="cls-1" d="M189.07,155.41c-3.83.84-7.52,1.64-11.25,2.2A54.26,54.26,0,0,1,176,149.4c.24,0,.48,0,.73,0,1.25,0,2.51,0,3.77,0a2.94,2.94,0,0,0,2.48-1.13,104.88,104.88,0,0,0,8.8-11.86c.17-.28.37-.54.52-.83s.21-.54.38-1c-.42.08-.68.12-.93.18-2.88.69-5.75,1.42-8.65,2.07-1.56.34-3.16.54-4.75.8-.24,0-.49,0-.79.05a54.09,54.09,0,0,1-1.81-7.49,3.32,3.32,0,0,1,1.88-.19c.8.11,1.59.23,2.39.32,1.22.15,1.6-.05,2.17-1.16a76.93,76.93,0,0,0,4.45-10.3c.93-2.7,1.73-5.45,2.6-8.18.08-.29.19-.56.31-.92l8.69,2.83c-.14.3-.24.55-.36.79a48.73,48.73,0,0,1-5,7.81c-2.07,2.75-4.17,5.47-6.26,8.21l-.62.84a13.74,13.74,0,0,0,1.4.15c2.28,0,4.57,0,6.86,0a2,2,0,0,0,1.93-1.31c1.17-2.45,2.36-4.89,3.55-7.33.12-.24.25-.48.42-.8l8,3.42c-.15.27-.26.51-.4.74a88.67,88.67,0,0,1-9,12.42,134.21,134.21,0,0,1-10.74,11l-.43.42a2.53,2.53,0,0,0,.51.19,13.7,13.7,0,0,0,1.57.17,40.33,40.33,0,0,0,8.71-.47c.39-.08.78-.19,1.22-.29-.06-.26-.1-.47-.16-.68l-1.54-5c-.21-.67-.16-.83.41-1.2.37-.24.77-.46,1.17-.67a1.1,1.1,0,0,1,1.43.28,7.6,7.6,0,0,1,.62.76,50.88,50.88,0,0,1,6.39,12.17c.16.42.24.86.38,1.38L202,158.05c-.48-1.93-.93-3.79-1.41-5.72l-4.36,1.26v.79c0,3.32,0,6.64,0,10q0,11.24,0,22.47a11.36,11.36,0,0,1-.3,2.53,3.39,3.39,0,0,1-2.42,2.47,9.82,9.82,0,0,1-4.39.16Z"/><path class="cls-1" d="M239.69,147.17c-.13-1-.26-2-.4-3.14a8.9,8.9,0,0,0-1-.16,127.13,127.13,0,0,0-12.95-.19c-1.06,0-2.11.1-3.16.16-.15,0-.29,0-.5.08-.12,1.28-.23,2.54-.35,3.85h-6.51c0-.47-.12-.94-.13-1.4-.09-3.67-.19-7.34-.23-11q-.08-7.38-.06-14.77c0-2.54.09-5.08.14-7.61,0-.43.08-.85.12-1.33a25.79,25.79,0,0,1,6.63-.05c.13,1,.25,1.92.37,2.87.57.15,16.37.2,17.62,0l.28-2.63a18.68,18.68,0,0,1,7.45-.22c0,.46.09.85.09,1.24,0,2.82,0,5.63,0,8.45q0,12.48,0,25v.81A49.67,49.67,0,0,1,239.69,147.17Zm-18-28.43c0,.33-.06.58-.07.83-.05,2.58-.16,5.17-.13,7.76,0,2.28.18,4.57.29,6.85a7.73,7.73,0,0,0,.16.88,6.81,6.81,0,0,0,.56-.74c.67-1.23,1.42-2.43,2-3.71a32.3,32.3,0,0,0,2.24-9c0-.26.08-.53.12-.77h7.28a1.28,1.28,0,0,1,0,.28,16.27,16.27,0,0,1-2.16,5c-.13.18-.24.38-.35.57a1,1,0,0,0,.18,1.3,8.43,8.43,0,0,0,1.27,1c1.37.89,2.77,1.75,4.15,2.61l.77.5-1.67,6.28c-.51-.53-.9-.92-1.26-1.33a20.65,20.65,0,0,1-2.32-3.6c-.62-1.12-1.27-2.23-1.93-3.33a7.66,7.66,0,0,0-.69-.87,6.89,6.89,0,0,0-.78.67l-7.18,8.34a2,2,0,0,0-.54,1.62c.32,0,.64.11,1,.12,5,.26,10.1.22,15.15,0,.49,0,1-.11,1.44-.16.46-2.73.32-19.35-.17-21.13Z"/><path class="cls-1" d="M226.29,109.05a19.16,19.16,0,0,1-7.58.1c-.23-1.27-.14-20.85.1-21.63h7.48Z"/><path class="cls-1" d="M199.22,87.62h7.22l.08.08a.07.07,0,0,1,0,.06.78.78,0,0,1,0,.21q0,10.48,0,21a3.6,3.6,0,0,1,0,.36,34.69,34.69,0,0,1-7.42,0C199,108.52,199,88.33,199.22,87.62Z"/><path class="cls-1" d="M64.71,217.5a2.36,2.36,0,0,0-.09.4c0,2.14,0,4.27,0,6.41a2.7,2.7,0,0,0,2.58,2.88,4.21,4.21,0,0,1,.58.18,1.61,1.61,0,0,1-.34.19c-.78.1-8.8,0-9.32-.13a2.89,2.89,0,0,1,.38-.22c.22-.05.45-.07.67-.12a2.41,2.41,0,0,0,2-2,11.61,11.61,0,0,0,.16-1.87c0-3.87,0-7.73,0-11.6a12.47,12.47,0,0,0-.13-1.73,2.41,2.41,0,0,0-2.12-2.22l-.93-.19c.27-.36.56-.25.81-.25,2.86,0,5.72,0,8.59,0a22.72,22.72,0,0,1,2.47.14,5.35,5.35,0,0,1,4.71,6.54,4.18,4.18,0,0,1-2.34,3,6.28,6.28,0,0,1-2.76.64c-1.36,0-2.71,0-4.07,0Zm0-.49a18.81,18.81,0,0,0,3.2-.09,3.67,3.67,0,0,0,3-2.44,5.44,5.44,0,0,0-.28-4.72,3.75,3.75,0,0,0-2.39-1.94,14.78,14.78,0,0,0-3.53-.18Z"/><path class="cls-1" d="M249.2,207.15a20,20,0,0,1,.17,4.87c-.3-.12-.24-.41-.3-.63a5.24,5.24,0,0,0-.94-2,4.43,4.43,0,0,0-3.19-1.67c-1.68-.09-3.36-.07-5-.1a1,1,0,0,0-.25.09v8.83a9.41,9.41,0,0,0,3-.15,2.29,2.29,0,0,0,1.58-1.49,11.41,11.41,0,0,0,.33-1.31c0-.18.09-.36.15-.58.35.15.27.41.27.61,0,1.38,0,2.76,0,4.14,0,.81,0,1.61,0,2.41V221l-.16,0c-.07-.1-.18-.19-.21-.3-.12-.46-.18-.94-.32-1.39a2.9,2.9,0,0,0-2.54-2.17c-.66-.08-1.33-.1-2-.14a1.59,1.59,0,0,0-.1.31c0,2,0,4.08.12,6.11.16,2.24,1.28,3.34,3.51,3.63a9.67,9.67,0,0,0,3.59-.21,4.83,4.83,0,0,0,3.45-3.08c.23-.58.36-1.2.55-1.8a1.05,1.05,0,0,1,.17-.29l.11,0s0,0,.06,0a1.6,1.6,0,0,1,.05.29c-.05,1.81-.11,3.62-.17,5.53-1,0-2,0-3,0s-2,0-2.94,0h-6c-1,0-2,0-3,0s-1.92,0-2.87,0l0-.23a5.47,5.47,0,0,1,.58-.15,2.67,2.67,0,0,0,2.45-2.78c0-.62.05-1.25.05-1.88,0-3.59,0-7.19,0-10.78a11.36,11.36,0,0,0-.16-2.1,2.45,2.45,0,0,0-2.24-2.11l-.78-.1c.14-.17.18-.27.22-.27Z"/><path class="cls-1" d="M146.87,227.47c-.56.24-.79-.06-1-.37l-8.58-10.8L133,210.93l-.51-.59a4,4,0,0,0-.08.57q0,6.18,0,12.36a11.35,11.35,0,0,0,.13,1.65,2.45,2.45,0,0,0,2.13,2.22c.25.06.55,0,.77.25-.07.07-.12.15-.17.15-2.09,0-4.17,0-6.25,0a.93.93,0,0,1-.28-.11c.2-.32.48-.24.7-.29a2.48,2.48,0,0,0,2.24-2.29,11.34,11.34,0,0,0,.11-1.65q0-5.66,0-11.31a11,11,0,0,0-.12-1.72,2.43,2.43,0,0,0-2.28-2.24,1.18,1.18,0,0,1-.62-.28,1,1,0,0,1,.36-.13c1.61,0,3.21,0,4.82,0a.9.9,0,0,1,.74.43q1.8,2.33,3.62,4.63l7.4,9.43c.13.17.28.32.52.59,0-.38,0-.62,0-.86q0-4.94,0-9.87a10.83,10.83,0,0,0-.13-1.8A2.43,2.43,0,0,0,144,208c-.25-.05-.56,0-.74-.27.07-.06.12-.13.18-.13h6.33c.06,0,.11.08.27.2-.26.07-.43.13-.61.16a2.54,2.54,0,0,0-2.42,2.46,18.35,18.35,0,0,0-.11,2.1v15Z"/><path class="cls-1" d="M178.08,212.67c-.31-.11-.24-.4-.33-.61a15.4,15.4,0,0,0-.93-2.21,4.26,4.26,0,0,0-2.9-1.86,17.86,17.86,0,0,0-4.41-.33,5.22,5.22,0,0,0-.06.66q0,7.45,0,14.92a9.87,9.87,0,0,0,.15,1.8,2.42,2.42,0,0,0,2.09,2.08,1.61,1.61,0,0,1,.91.3,1.73,1.73,0,0,1-.4.15c-1.41.12-8.65,0-9.23-.15a1.47,1.47,0,0,1,.4-.2c.24-.06.5-.08.74-.14a2.4,2.4,0,0,0,1.87-1.87,7.45,7.45,0,0,0,.17-1.56q0-7.72,0-15.45c0-.15,0-.3,0-.49a3.32,3.32,0,0,0-.52-.06c-1.2.09-2.4.15-3.6.29a4.28,4.28,0,0,0-3.7,3.1c-.2.54-.35,1.09-.55,1.75-.13-.2-.23-.29-.23-.38.06-1.63.14-3.26.22-4.89a1.17,1.17,0,0,1,.1-.3h20A24.66,24.66,0,0,1,178.08,212.67Z"/><path class="cls-1" d="M227.82,221.47c.08,2-.11,4-.14,6.05H209.87l0-.12c.1-.06.2-.18.3-.19,2-.18,2.77-1.45,2.77-3.19,0-4.48,0-9,0-13.42a3.91,3.91,0,0,0-.06-.68,2.58,2.58,0,0,0-2.54-2.42,2.29,2.29,0,0,1-.36-.07s-.05-.07-.11-.16c.1-.05.19-.14.29-.15a85,85,0,0,1,9.22.15c-.11.33-.41.21-.63.24a2.54,2.54,0,0,0-2.36,2.35,9.47,9.47,0,0,0-.11,1.5c0,1.06,0,2.11,0,3.17,0,2.48,0,5,0,7.46a14.73,14.73,0,0,0,.14,1.88,3.41,3.41,0,0,0,2.74,3,8.94,8.94,0,0,0,4.62-.16,4.62,4.62,0,0,0,3-2.7,18.23,18.23,0,0,0,.65-1.93l.21-.68Z"/><path class="cls-1" d="M204.65,227.45c-.53.15-8.94.18-9.82,0,.15-.11.23-.23.34-.26.34-.08.69-.12,1-.22a1.87,1.87,0,0,0,1.4-2.31,7.5,7.5,0,0,0-.32-1.08c-.49-1.24-1-2.47-1.49-3.71a.77.77,0,0,0-.84-.56c-1.81,0-3.62,0-5.43,0-.31,0-.59,0-.72.37-.47,1.3-1,2.58-1.44,3.89a4.06,4.06,0,0,0-.22,1.25,2.16,2.16,0,0,0,1.64,2.24l.65.19s0,.08.09.19a2.33,2.33,0,0,1-.32.1,47.26,47.26,0,0,1-6.4-.15,2.32,2.32,0,0,1,.47-.24,3,3,0,0,0,2-1.34,14.11,14.11,0,0,0,1.33-2.36c1.3-3.21,2.54-6.44,3.8-9.67q1.17-3,2.32-6c.09-.23.19-.46.3-.7h.84l1,2.34q2.86,6.93,5.73,13.85c.3.72.65,1.42,1,2.11a2.93,2.93,0,0,0,2.36,1.67c.26,0,.51.12.76.18Zm-9.36-8.76-3.06-7.54h-.15l-2.88,7.54Z"/><path class="cls-1" d="M98,221.51c.09,2-.14,4-.12,5.93-.72.19-16.88.18-17.57,0a2.92,2.92,0,0,1,.39-.2c.22-.06.45-.07.67-.13a2.37,2.37,0,0,0,1.88-1.94,6.67,6.67,0,0,0,.14-1.27q0-6.33,0-12.66a6.12,6.12,0,0,0-.13-1.2,2.43,2.43,0,0,0-2.1-2.06c-.23,0-.45-.07-.67-.12,0,0-.06-.07-.11-.14.19-.28.49-.17.73-.17h8.14a.62.62,0,0,1,.45.2,2.26,2.26,0,0,1-.39.18,8.56,8.56,0,0,0-1,.23,2.41,2.41,0,0,0-1.53,2.07,11.57,11.57,0,0,0-.11,1.66c0,3.77,0,7.53.08,11.3a5.26,5.26,0,0,0,.17,1.19A3.1,3.1,0,0,0,89,226.77a8,8,0,0,0,5.67-.31A4.37,4.37,0,0,0,96.94,224c.25-.62.41-1.29.62-1.93C97.62,221.89,97.62,221.65,98,221.51Z"/><path class="cls-1" d="M112.24,207.56h.82c.36.86.72,1.71,1.07,2.57,1.83,4.4,3.65,8.82,5.48,13.22.26.63.55,1.24.84,1.85a3.06,3.06,0,0,0,2.58,1.94,6,6,0,0,1,.67.17c-.23.38-.54.26-.78.26-2.71,0-5.43,0-8.14,0-.23,0-.47,0-.7,0l0-.15a1.28,1.28,0,0,1,.28-.15c.27-.06.55-.09.82-.16a1.88,1.88,0,0,0,1.55-2.34,3.13,3.13,0,0,0-.1-.44c-.62-1.57-1.24-3.13-1.86-4.72h-6.46a3.81,3.81,0,0,0-.23.45c-.41,1.06-.83,2.1-1.2,3.17a6.5,6.5,0,0,0-.38,1.68,2.08,2.08,0,0,0,1.62,2.24l.84.25c-.24.12-.34.21-.43.21h-6c-.08,0-.17,0-.29-.21a4.78,4.78,0,0,1,.48-.19,2.81,2.81,0,0,0,1.85-1.2,11,11,0,0,0,1.19-2c1.3-3.21,2.56-6.44,3.82-9.67.8-2,1.58-4.07,2.38-6.11C112.06,208,112.15,207.78,112.24,207.56Zm2.15,11.31a51.24,51.24,0,0,0-3.09-7.32c-.92,2.44-1.88,4.84-2.78,7.32Z"/><path class="cls-1" d="M183.6,165.89c.16,2.42.45,4.75.44,7.08a13.2,13.2,0,0,1-3.95,10,14,14,0,0,1-3.74,2.5c-.79.36-1.13.14-1.19-.71a1.55,1.55,0,0,1,.6-1.31c.32-.28.66-.55,1-.86a6.32,6.32,0,0,0,1.61-4.34c.05-1.76.08-3.52,0-5.27a7,7,0,0,1,1.94-4.91,7.52,7.52,0,0,1,2.65-1.95A5.77,5.77,0,0,1,183.6,165.89Z"/><path class="cls-1" d="M178.16,101.35V97.21h17.18a18.3,18.3,0,0,1,0,4.14Z"/><path class="cls-1" d="M247.19,101.06c-5.74.11-11.5,0-17.31,0V97.15h17.3A15.45,15.45,0,0,1,247.19,101.06Z"/><path class="cls-1" d="M202.85,180.59a73.59,73.59,0,0,1-3.61-17.85l.15-.07,7.93,12.46A44.26,44.26,0,0,1,202.85,180.59Z"/><path class="cls-1" d="M83.57,101.88v-3.6a9.7,9.7,0,0,1,1.39-.2c3.51,0,7,0,10.54,0a1.8,1.8,0,0,1,.33.06V102H85.57C84.93,102,84.28,101.92,83.57,101.88Z"/><path class="cls-1" d="M126.75,101.94H114.88l.18-3.85h11.66A11.87,11.87,0,0,1,126.75,101.94Z"/><path class="cls-1" d="M215.41,97v4.06H210A16.16,16.16,0,0,1,210,97Z"/><path class="cls-1" d="M108.85,205.26a2.59,2.59,0,0,1,.81-1.28,4.27,4.27,0,0,1,2.85-1.52,6,6,0,0,0,1.09-.26,3.3,3.3,0,0,0,2-1.53,4.14,4.14,0,0,1-1.52,3.87A4.85,4.85,0,0,1,108.85,205.26Zm5.06-2a4.64,4.64,0,0,1-2.44.58,1.11,1.11,0,0,0-1,.49c.57,0,1.19,0,1.81,0A1.65,1.65,0,0,0,113.91,203.3Z"/><rect class="cls-2" width="308" height="308"/></g></g></svg>