<svg xmlns="http://www.w3.org/2000/svg" viewBox="0 0 184.52 75.19"><defs><style>.cls-1{isolation:isolate;}.cls-2{fill:#9dca9a;opacity:0.95;}</style></defs><g id="Layer_2" data-name="Layer 2"><g id="Layer_1-2" data-name="Layer 1"><g class="cls-1"><path class="cls-2" d="M.23,15.71a8,8,0,0,0,3.4-.47v-7H.47V7H3.63V.47H6V7H8.44V8.21H6V14.3a17.35,17.35,0,0,0,2.23-2l.11.12A15.83,15.83,0,0,1,6,16.06V26.38q-.59,2-4.1,2.81c-.16-.23-.32-.35-.47-.35l-1.29.35L0,29q3.17-1.18,3.63-2.58V17.47A10,10,0,0,1,.94,18.52,8.36,8.36,0,0,0,.23,15.71ZM11.25,29a2.07,2.07,0,0,1-2.11-2.23V1.17h2.35V2.58h5.16V1.17H19V16.41H16.65V14.77H11.49V25.91c-.08.47.15.7.7.7h4.69a2.08,2.08,0,0,0,1.41-.7L19.58,19h.47l-.36,5.39h.71v2.11c-.24,1.8-1.1,2.62-2.58,2.47Zm.24-25.21V13.6h1.4V3.75Zm3.75,0V13.6h1.41V3.75Z"/><path class="cls-2" d="M29.54,27a31.12,31.12,0,0,0,4.22-10.55H30.25V15.24h4V13.13h2.35v2.11h2.57v1.17H36.58v1.41c.78.78,1.44,1.41,2,1.87l.82.59a9.3,9.3,0,0,1-.7,2.7,7.84,7.84,0,0,1-1.06-1.76c-.47-.94-.82-1.68-1.05-2.23V29.07H34.23v-8a55.08,55.08,0,0,1-4,5.86ZM31.18,3.52h7.51V.23h2.1V3.52h8.45V4.69H42a10.45,10.45,0,0,0,7,5.16,5.47,5.47,0,0,0-.47,3.28q-5.16-1.76-7-8.44h-.71v9.14h-2.1V7a22.5,22.5,0,0,1-7.51,6.1h-.7a18.47,18.47,0,0,0,6.8-8.44h-6.1Zm6.1,24.15q3.16-3.75,4.92-11.26H40.33V15.24h2.11V13.13h2.34v2.11h4.93v1.17h-4q.93,5.4,4.22,7.5a5.2,5.2,0,0,0-.35,2.94,1.51,1.51,0,0,1-.24.35c-.08.07-.15,0-.23-.12q-3.4-2.92-3.64-10.67h-.7V29.07H42.44V22a22.37,22.37,0,0,1-2.35,3.28,9.83,9.83,0,0,0-1.87,2.35Z"/><path class="cls-2" d="M60.49,24.62A45.15,45.15,0,0,0,64,8H61V6.8h3.28V.47h2.35V6.8h3.28V8H66.59V11c1.32,1.33,2.5,2.58,3.51,3.75a19.6,19.6,0,0,1-1,3.05q-.24,0-1.29-2.7c-.55-1.25-.94-2.22-1.17-2.93V29.07H64.24V17.47q-.93,2.34-2.7,6.33a7.14,7.14,0,0,0-.35.82ZM70.81,6.56h2.34V.23H75.5V6.56h4.92V7.74H76.67q.47,8.79,4.22,12.42a7.35,7.35,0,0,0-.47,3.52v.94a10.69,10.69,0,0,1-3.17-5.51c-.54-1.88-.9-5.67-1-11.37h-.7V29.31H73.15V16.18a35.31,35.31,0,0,1-4.45,8.67h-.94Q71.85,18.42,73,7.74H70.81Z"/><path class="cls-2" d="M99.53,12.31Q101.75,8.2,101.64.12h2.81a26.7,26.7,0,0,1-1.17,6.68H107V5.16h2.34V25.44q-.12,2.22-3.28,3.52c-.23-.4-.51-.51-.82-.36l-1.41.36-.23-.36c2.11-.78,3.24-1.8,3.4-3V8h-4.22A30.54,30.54,0,0,1,100,12.66h-.47V27H97.18V25.44H93.43V27.9H91.09V5.63h2.34V6.8H94c.62-1.17.9-3.28.82-6.33h2.58A9.58,9.58,0,0,1,94.6,6.8h2.58V5.63h2.35ZM93.43,24.5h3.75V8H93.43V14.3H96v1.17H93.43Zm9.85-4.1a29.86,29.86,0,0,1-1.88-8.09h.12a32.45,32.45,0,0,1,3.16,4.81A12.39,12.39,0,0,1,103.28,20.4Z"/><path class="cls-2" d="M120.63,3.05h2.11V4.22h2.34V3.05h2.11V19.69h-2.11V17.58h-2.34V21.1h-2.11Zm2.11,13.13h2.34V5.63h-2.34Zm9.61-4.93V6.33h-4V4.92h4V0h2.35V4.92h4.22V6.33H134.7v4.92h4.92v1.41h-3.4q.83,7,4.1,9.38a4.8,4.8,0,0,0-.47,4.22q-4.09-2.7-4.22-11.84V12.66h-.93V29.07h-2.35V17.7A52.31,52.31,0,0,1,126,26.49h-1.41q6.22-6.33,7.27-13.83h-3.75V11.25Z"/><path class="cls-2" d="M150.29,25.79c1.87.16,2.81-.31,2.81-1.41V11.72h-2.81V10.55h2.81V9.14h2.35V23.91a2.24,2.24,0,0,0,2.34,2.58h12.9c-1.1.55-1.26,1.33-.47,2.35H158c-2.18-.16-3.24-1.57-3.16-4.22a5.35,5.35,0,0,1-4.57,4.45A3.52,3.52,0,0,0,150.29,25.79ZM155.91,5A9.41,9.41,0,0,1,154.51,8a26.12,26.12,0,0,1-2.58-6.92l.12-.11A30,30,0,0,1,155.91,5Zm.94,1.06V4.92h4.69A16.85,16.85,0,0,1,159.2.47,15.75,15.75,0,0,1,163,2.81a5.1,5.1,0,0,0-.24.59,3.9,3.9,0,0,1-.7,1.52h2.11L166.93.47l.94.7-2.58,3.75h4.93V6.1h-5.63a5.64,5.64,0,0,1-1.76,3.16,1.4,1.4,0,0,1-.23.35h3.86V8.44h2.35V25.09h-2.35V23.21H160.6v1.88h-2.34V8.67h2.34v.94h1.18a4.39,4.39,0,0,0,.35-1.17,14.62,14.62,0,0,0,.11-2.34ZM160.6,22h5.86V10.78H160.6V13.6h4.93v1.17H160.6v2.81h4.93v1.18H160.6Z"/><path class="cls-2" d="M184.52,21.1v4.22a5,5,0,0,1-3.4,4.1V27.9a3,3,0,0,0,1.52-2.7h-1.87V21.1Z"/><path class="cls-2" d="M.23,60.54V58.9H19.69v1.64Z"/><path class="cls-2" d="M29.78,68.74A42.13,42.13,0,0,0,33.29,53.5H30V52.33h3.52V46h2.34v6.33h3.28V53.5H35.87v2.58A7.61,7.61,0,0,0,37,57.25a17.35,17.35,0,0,1,1.88,1.65,6.17,6.17,0,0,1-.7,2.81,17.36,17.36,0,0,1-2.35-4.46V74.6H33.53V62.88a18.68,18.68,0,0,1-1.76,3.52,18.76,18.76,0,0,0-1.29,2.34Zm8.44-21.33H49.94v1.17H45.48Q45,51,44.2,54.44H45v20.4H42.67V59a53.63,53.63,0,0,1-3.87,6.92c-.55.86-1,1.72-1.52,2.58h-.7q4.68-7.4,6.09-19.93H38.22ZM48.42,67.8q-.48-2.22-1.29-6.68-.83-4.21-1.41-7.73H46q2.7,6.55,4.34,11.13A8.81,8.81,0,0,1,48.42,67.8Z"/><path class="cls-2" d="M63.54,46.23h2.11V50.1h1.29V46.23h2.11V50.1h1.52V46.23h2.11V50.1h1.53V46.35h2.11V50.1h3.4v1.17h-3.4v2.94c0,.46.19.66.58.58h1.17c.47.08.75-.15.82-.7A5.41,5.41,0,0,1,79,52.21h.35v2h.47v1.52a.94.94,0,0,1-1.29.94H76.08c-1.41.16-2-.35-1.87-1.53V51.27H72.68v5.87H70.57V55.73H69.05v1.41H66.94V51.27H65.65q.34,3.28-4.11,6.34h1.18v.82H77.37v-.94h2.35v4.69c-.87-.78-1.57-.82-2.11-.12v7.62c.07,1.33-1,2.3-3.29,2.93q-.46-.7-2.34,0l-.12-.35c2.5-.63,3.6-1.41,3.28-2.35V64.05H71.28V75.19H68.93V64.05H65.06v8.33H62.72V61.94H60.37V57.72H60a6.59,6.59,0,0,0,3.52-6.45H60.26V50.1h3.28ZM62.72,59.6v2.23h2.34v1.05h3.87V59.6Zm6.33-8.33v3.29h1.52V51.27Zm2.23,8.33v3.28h3.86V61.83h2.23V59.6Z"/><path class="cls-2" d="M95.42,69.21A4.26,4.26,0,0,0,99.17,72V58.66h2.35v4.92h5.63V65h-5.63v7h8.67c-1.32.78-1.56,1.72-.7,2.82l-8.91-.24A5.91,5.91,0,0,1,95.07,70a18.68,18.68,0,0,1-4.57,4.81h-.94a13.37,13.37,0,0,0,4.22-9.61V61.71h2.35v3.4A10.4,10.4,0,0,1,95.42,69.21Zm3.52-22.74h2.35v4h7v1.41h-7v4.69h8.44V58H90.5V56.55h8.44V51.86h-7V50.45h7Z"/></g></g></g></svg>