<svg xmlns="http://www.w3.org/2000/svg" viewBox="0 0 109.84 29.42"><defs><style>.cls-1{isolation:isolate;}.cls-2{fill:#9dca9a;}</style></defs><g id="Layer_2" data-name="Layer 2"><g id="Layer_1-2" data-name="Layer 1"><g class="cls-1"><path class="cls-2" d="M0,28.84q5.16-4.34,7-8.21T8.91,10.55V.12h2.58V11.37q1,10.67,8.67,14a6,6,0,0,0-.7,3.28q0,.24-.12.24a.33.33,0,0,1-.23-.12q-7-3.75-8-14.3Q11,21.1,1.17,28.84Z"/><path class="cls-2" d="M36.93,0a5.77,5.77,0,0,1-.71,2.34h12.9V3.52H35.52a67.8,67.8,0,0,1-3.87,5.74h-.94a15.11,15.11,0,0,0,3-9.26Zm2.58,10.67v6.45h.23l3-6,.94.58-2.82,5.4h3.52v1.05H39.51v11H37.16v-10q-.93,2.81-5.39,8.08H31a20.78,20.78,0,0,0,4.45-9.14H31.18V17.12h6V10.67Zm-6.69.58A29,29,0,0,1,36,14.18a10.22,10.22,0,0,1-1.29,2.47A14.87,14.87,0,0,1,32.82,11.25ZM45.25,7.39H47.6v6.44q-.36,9.5,1.4,10.79l.47-5.39h.35v5.15h.35v4.81A13.37,13.37,0,0,1,46.07,24q-.95-2.46-.82-8.67V9.5H33.06V8.32H45.25ZM47.6,5.27V6.45H35.29V5.27Zm-7.51,13.6q2.23,2.58,4.57,5.51a1.35,1.35,0,0,1-.35.59,13.18,13.18,0,0,1-1.05,2.11,46.85,46.85,0,0,1-3.4-8Z"/><path class="cls-2" d="M60.61,4.45V3.28h9.85C69.67,1.72,69.17.66,68.93.12L69.05,0a23,23,0,0,1,3,1.64,3.69,3.69,0,0,1-.47,1.64H80.3V4.45H74.21l1.17.71L73,9.38h3.76V8.44h2.34V26.26c0,1.64-1.17,2.7-3.52,3.16a.52.52,0,0,0-.7-.46l-1.29.11-.12-.47c2.35-.62,3.44-1.25,3.29-1.87V10.55H64.36V17a10.06,10.06,0,0,0,3.16-5.51H70.1a8.51,8.51,0,0,1-5.74,6.09V29.07H62V8.21h2.35V9.38h3a51.65,51.65,0,0,1-1.88-4.93Zm7,4.93h4L74,4.45H66.23A18.76,18.76,0,0,1,68.81,7,9.32,9.32,0,0,1,67.64,9.38Zm3.75,2h.47q3.17,2.36,4.46,3.4a6.06,6.06,0,0,1-1.41,2.7l-.7-1.06v9.38H72.1V24.5h-3v1.29H66.94v-9.5h2.11V17h3v-.71h2A43.92,43.92,0,0,1,71.39,11.37Zm.71,11.72V18.17h-3v4.92Z"/><path class="cls-2" d="M91.32,28.72v-15h2.35v1.64H97V13.72h2.34V28.49H97V26.61H93.67v2.11Zm2.35-12.19v8.91H97V16.53Zm10.78-5.63H97v1.64H94.6V.12H97v1.4h7.5V.12h2.35V12.54h-2.35ZM97,9.73h7.5v-7H97Zm7,19h-2.34v-15H104v1.64h3.52V13.72h2.34V28.25H107.5V26.61H104Zm0-3.28h3.52V16.53H104Z"/></g></g></g></svg>