<svg xmlns="http://www.w3.org/2000/svg" viewBox="0 0 110.48 29.07"><defs><style>.cls-1{fill:#9eca9b;}</style></defs><g id="Layer_2" data-name="Layer 2"><g id="Layer_1-2" data-name="Layer 1"><path class="cls-1" d="M1.77,7.92H4v.35h15.6v1.3H4v5.08H8.15a13.53,13.53,0,0,0,.48-2h-4V11.46H8.74v-.83h2.49a8.85,8.85,0,0,1-2.37,4h3.19v1.18H11v4.85a23.61,23.61,0,0,0,2-10.16h2.6c-.32,1.49-.63,2.83-.95,4h5.08v1.19h-2a17.65,17.65,0,0,1-1.53,7.68A8.45,8.45,0,0,0,20,25.05a3.13,3.13,0,0,0-.59,3.78,23,23,0,0,1-4.25-3.66,8,8,0,0,0-1.07.94l-2.24,2.6H11v.12H9V24.46c-1.5.79-3.23,1.65-5.2,2.6a2.2,2.2,0,0,0-.59-2.95.48.48,0,0,0,.35.11,11.69,11.69,0,0,0,1.66.12V15.83H4v3.43q0,3.19-3,8.39a2.92,2.92,0,0,0-.35.71H0a16.14,16.14,0,0,0,1.77-6.74ZM2.84.35H5V1.42h2.6V.35H9.81V7.44H7.56V6.38H5V7.44H2.84ZM5,2.48V5.32h2.6V2.48ZM9,15.83H7.09v1.78h1.3v1.06H7.09v1.77h1.3v1.18H7.09v2.49A4.06,4.06,0,0,0,9,23.51Zm3.55,3.31a1.4,1.4,0,0,1-.24.36A8.17,8.17,0,0,1,11.46,21H11v1.42a8.45,8.45,0,0,1,.83-.59c-.08.08,0,0,.35-.24l.12.12L11,23v5.44a16.67,16.67,0,0,0,3.31-4.37A24.68,24.68,0,0,1,12.53,19.14ZM11.23.35h2.24V1.42H16V.35H18.2V7.44H16V6.38H13.47V7.44H11.23Zm2.95,15.37a5.12,5.12,0,0,0-.35.82c-.16.32-.44.95-.83,1.89a7.86,7.86,0,0,0,2,3.67,30.67,30.67,0,0,0,.47-6.38ZM16,2.48H13.47V5.32H16Z"/><path class="cls-1" d="M33,8.15h2.24V22.21q-.24,4.62,5,3.9H50.93c-.71.48-1,.79-1,.95-.08.24.24.63,1,1.18h-10q-6.14,1.07-6.14-5.08a9.93,9.93,0,0,1-4.37,5.67q1.06-2.35,0-3.78H33V11H30.13V9.69H33ZM32.26,0a28.42,28.42,0,0,1,3,3.66,6.65,6.65,0,0,1-1.65,2.48A31.29,31.29,0,0,1,32,.12Zm7.21,12.17h2.24v2.25h2.6V12.17h2.25v2.25h3.07v1.3H46.56v2.71h3.66v1.3H44.67q1.53,1.31,3.9,3.55a.64.64,0,0,0,.47.23.49.49,0,0,0-.12.36,15.84,15.84,0,0,1-1.06,2,19.62,19.62,0,0,1-3.67-6.15H35.92v-1.3h3.55V15.72h-3v-1.3h3ZM36.75.24h2v.94h1.65V.24h2.13V6.85H42.3V8.27h.48V10.4c0,.71-.44,1-1.3.94H38.17C37,11.5,36.51,11,36.75,9.93Zm2.83,20.2h3c-.47,1.42-2,3.07-4.61,5H37A7,7,0,0,0,39.58,20.44ZM38.76,6V8.74c-.16.71.12,1,.82.83h1c.63.16,1-.12,1.06-.83l.24-1.89H40.41V6Zm1.65-3.78H38.76V4.84h1.65Zm1.3,13.47v2.71h2.6V15.72ZM43.48.12h2V1.18h2V.12h2V6.5h.24V8.39h.47V10c.16,1-.28,1.46-1.3,1.3h-4c-1.1.24-1.57-.23-1.42-1.41Zm2,5.91V8.39c-.23.87.24,1.22,1.42,1.06h1.18c.63.16,1-.15,1.07-.94l.23-1.77H47.5V6Zm2-3.78h-2V4.84h2Z"/><path class="cls-1" d="M65.82,10.4V7.8H61.09V6.5h4.73V4.73h2.6V10.4q.47,7.32-7.33,15.6h-.71a30,30,0,0,0,4.26-7.57A23.52,23.52,0,0,0,65.82,10.4ZM69.6,25.52V0H72V26c0,1.57-1.26,2.6-3.78,3.07,0-.24-.24-.36-.71-.36L66.05,29l-.11-.47Q69.72,27.66,69.6,25.52Zm10.4.24q-8.28-6.15-6.62-24.58h.24a60.11,60.11,0,0,0,1.06,10.87l4.37-6.61,1,.7-5,7.33A14.46,14.46,0,0,0,80.71,22a6,6,0,0,0-.48,3.54C80.31,25.84,80.23,25.92,80,25.76Z"/><path class="cls-1" d="M95.36,13.94H93V0h2.36V1.18h9.92V0h2.37V13.94h-2.37V12.53H101.5v3.54H110v1.18h-7.33a11.35,11.35,0,0,0,7.8,7.09c-.63.55-.79,1.66-.47,3.31q-6-2-7.8-10.4h-.71V28.83H99.14V19c-1,2-3.62,4.69-7.8,8.16a4,4,0,0,0-.83.82h-.59a31,31,0,0,0,7.33-10.75H90.4V16.07h8.74V12.53H95.36Zm3.78-7.8V2.36H95.36V6.14Zm0,5.2v-4H95.36v4Zm6.14-5.2V2.36H101.5V6.14Zm0,1.19H101.5v4h3.78Z"/></g></g></svg>