<svg xmlns="http://www.w3.org/2000/svg" viewBox="0 0 49.71 28.84"><defs><style>.cls-1{isolation:isolate;}.cls-2{fill:#9dca9a;}</style></defs><g id="Layer_2" data-name="Layer 2"><g id="Layer_1-2" data-name="Layer 1"><g class="cls-1"><path class="cls-2" d="M5.39,10.32V7.74H.7V6.45H5.39V4.69H8v5.63Q8.43,17.58.7,25.79H0a29.58,29.58,0,0,0,4.22-7.5A23.25,23.25,0,0,0,5.39,10.32Zm3.75,15V0h2.35V25.79q0,2.34-3.75,3.05c0-.24-.24-.35-.71-.35l-1.4.23-.12-.47C8,27.7,9.22,26.73,9.14,25.32Zm10.32.24q-8.21-6.1-6.56-24.39h.23a61.46,61.46,0,0,0,1,10.79l4.34-6.57.94.71-4.92,7.26a14.26,14.26,0,0,0,5.62,8.44,6.11,6.11,0,0,0-.47,3.52C19.77,25.63,19.69,25.71,19.46,25.56Z"/><path class="cls-2" d="M34.7,13.83H32.35V0H34.7V1.17h9.85V0h2.34V13.83H44.55v-1.4H40.8v3.51h8.44v1.18H42a11.25,11.25,0,0,0,7.74,7c-.63.55-.79,1.64-.47,3.28q-6-2-7.74-10.31h-.7V28.6H38.45V18.87c-1,2-3.59,4.65-7.74,8.09a4.55,4.55,0,0,0-.82.82h-.58a31,31,0,0,0,7.27-10.66h-6.8V15.94h8.67V12.43H34.7ZM38.45,6.1V2.34H34.7V6.1Zm0,5.15v-4H34.7v4Zm6.1-5.15V2.34H40.8V6.1Zm0,1.17H40.8v4h3.75Z"/></g></g></g></svg>