<svg xmlns="http://www.w3.org/2000/svg" viewBox="0 0 20.11 26.48"><defs><style>.cls-1{fill:#fff;}</style></defs><g id="Layer_2" data-name="Layer 2"><g id="Layer_1-2" data-name="Layer 1"><path class="cls-1" d="M4.31,10.41,6.19,3.23l.56.1L4.92,10.41H8V11H0v-.56ZM.56,2.48V1.92H4A16.85,16.85,0,0,1,3.47,0h0A6.64,6.64,0,0,1,4.69,1.08a3.48,3.48,0,0,1-.47.84H7.59v.56ZM2.91,9.56A40.15,40.15,0,0,1,1.69,3.38h.09C2.47,5,3.09,6.55,3.66,8A6.49,6.49,0,0,1,2.91,9.56Z"/><path class="cls-1" d="M14.44,6.8l.14-.14c.5.81,1,1.65,1.45,2.53a8.66,8.66,0,0,1-.65,1.22c-.16-.57-.3-1.05-.43-1.46a3.87,3.87,0,0,1-2.39,1.69,3.81,3.81,0,0,0-.23-1.12h.33V.05h.84V.52H15V.05h.84V6.33H15V5.77H13.5V9.33a4.32,4.32,0,0,0,1.41-.66,9.22,9.22,0,0,1-.24-.94C14.55,7.3,14.47,7,14.44,6.8ZM15,5.3V1H13.5V3h1.22v.47H13.5V5.3ZM16.59.05h.94V.52h1V.05h.94V8.86q.09.75-1.17,1.08c0-.13-.11-.17-.24-.14l-.56.14v1.45h-.94Zm2,9V1h-1V9.8C18.31,9.42,18.66,9.17,18.56,9.05Z"/><path class="cls-1" d="M1.64,14.81c.5.47.91.86,1.22,1.17a4.16,4.16,0,0,1-.56.71H3.84v.51H.23v-.51H2.11a13.7,13.7,0,0,1-.56-1.78ZM.47,18.19H3.56v.47H.47Zm3.05,1.4v.47h-3v-.47ZM.61,21.05H1.5v.65h1v-.65h.89v5H2.53v-.89h-1v.94H.61Zm1.92,1.08h-1v2.62h1ZM3.8,15.66H8.06v.51H6.56v8.58a1.22,1.22,0,0,1-.33,1,4.17,4.17,0,0,1-1.45.75.27.27,0,0,0-.33-.14l-.56.1-.05-.1c1.19-.28,1.77-.75,1.74-1.4V16.17H3.8Z"/><path class="cls-1" d="M12.75,23.3h1a6.72,6.72,0,0,1-1.35,2.86h-.29A5.19,5.19,0,0,0,12.75,23.3Zm2.34-8.21v7.83H14.3v-.61H13.17v.57h-.79V15.09h.79v.57H14.3v-.57Zm-.79,1H13.17v1.64h.89v.47h-.89v1.54h.89v.47h-.89v1.64H14.3Zm.93,8.86a4.63,4.63,0,0,1-.6,1.17,12.82,12.82,0,0,1-.75-3.23H14C14.53,23.78,15,24.47,15.23,24.94Zm2-10.08v1.08h.89V14.86h.85v1.08h1v.51h-1v.89h.84v.47h-.84v1h1.12v.51h-2v1h.75v-.47h.79v3.65h.52V24h-.52v1.64c0,.25-.31.54-1,.85a.26.26,0,0,0-.37-.14l-.42.14-.05-.14c.75-.25,1.11-.53,1.08-.85V24H16.59v2.53h-.84V24h-.61v-.47h.61V19.83h.84v.47h.61v-1H15.33V18.8h1.08v-1h-.85v-.47h.85v-.89h-1v-.51h1V14.86Zm-.61,5.91v1.07h.61V20.77Zm0,1.54v1.17h.61V22.31Zm1.5-5.86H17.2v.89h.89Zm0,1.36H17.2v1h.89Zm0,3v1.07h.75V20.77Zm0,1.54v1.17h.75V22.31Z"/></g></g></svg>