<svg xmlns="http://www.w3.org/2000/svg" viewBox="0 0 108.32 28.84"><defs><style>.cls-1{isolation:isolate;}.cls-2{fill:#9dca9a;}</style></defs><g id="Layer_2" data-name="Layer 2"><g id="Layer_1-2" data-name="Layer 1"><g class="cls-1"><path class="cls-2" d="M0,.59H2.11V1.76H5.86V.94h2v9.49h-2v-.7H2.11V28.6H0ZM2.11,2.93V5H5.86V2.93ZM5.86,6.21H2.11V8.56H5.86ZM8.56,19v2.7c.31,1.95-1.06,3.87-4.11,5.74H3.17c2.5-1.41,3.71-2.77,3.63-4.1H5.39v1.05H3.52V19.81H5.39v2.46H6.8V19h.82a1.31,1.31,0,0,1-.23-.59,2.26,2.26,0,0,1-.24-1,11.89,11.89,0,0,1-4,2A2.74,2.74,0,0,0,2.7,17h.58a6.43,6.43,0,0,0,3.4-2.82,18.94,18.94,0,0,1-3.51,1.53,3.5,3.5,0,0,0-.36-1.88h.47a4.66,4.66,0,0,0,2-2.81H7.39A8.11,8.11,0,0,1,3.87,14a6.31,6.31,0,0,0,2.93-.23c.08-.32.16-.63.23-.94H9.14A7.62,7.62,0,0,1,7,15.36l1.06,1.4a3.38,3.38,0,0,0,.82.94A5.71,5.71,0,0,1,7.85,19ZM3.87,17.12A5.85,5.85,0,0,0,7,16.88a5.66,5.66,0,0,1-.23-.59,2.1,2.1,0,0,1-.12-.7A5.6,5.6,0,0,1,3.87,17.12Zm11.25.58A8.46,8.46,0,0,1,14,19.23c-.08.15-.16.19-.23.11v-.23c-.16-.47-.36-1.1-.59-1.88a12.59,12.59,0,0,1-4.22,1.53,2.93,2.93,0,0,0,0-2h.23a6.71,6.71,0,0,0,3-2.58,8.42,8.42,0,0,1-3.28,1.29A3.37,3.37,0,0,0,8.79,14h.35A5.37,5.37,0,0,0,10.9,11H13A10.69,10.69,0,0,1,9.61,14a6.63,6.63,0,0,0,2.7-.35,3.76,3.76,0,0,0,.23-.82h2.35A6.08,6.08,0,0,1,13,15a5.69,5.69,0,0,0,.82,1ZM9.5,18.87h1.75v3.4h1.53V19.69h1.87v4.58H12.78v-.94H11.25v4.1H9.5Zm.11-2a7.13,7.13,0,0,0,3.4-.12,13,13,0,0,1-.35-1.52A13.26,13.26,0,0,1,9.61,16.88ZM18.17.35v25c.08,1.17-1.25,2.31-4,3.4l-.12-.12c-.32-.23-.55-.27-.71-.11l-.93.23V28.6c2.58-1.09,3.79-2.11,3.63-3V9.73H12.31v.7H10.2V.82h2.11v.94h3.75V.35ZM16.06,2.93H12.31V5h3.75Zm0,3.28H12.31V8.56h3.75Z"/><path class="cls-2" d="M30,5.63V4.45h5.16A36.52,36.52,0,0,1,33.53,0,13.62,13.62,0,0,1,37,2.58a19.09,19.09,0,0,1-1.17,1.87h4.46V5.63h-6.1V9.85h2.35V8.44h2.11v7.27Q42,11.26,42.44.23h2.81a1.93,1.93,0,0,1-.23.82v.47q1.17,6.81,4.45,9.73a6.34,6.34,0,0,0-.23,4.22q-3.41-2.22-4.46-12.19a29.86,29.86,0,0,1-5.39,12.66h-.7v9.38c.07,1.17-.94,2.15-3,2.93-.32-.55-.63-.7-.94-.47l-1.41.47-.11-.35c2.57-1.09,3.71-2,3.4-2.7V11H34.23v2.81q.12,10.09-4,14.77h-.71q2.7-4.56,2.58-15v-8ZM46.89,27.9a23.26,23.26,0,0,1-6.56-7.5,53.24,53.24,0,0,1,7,4A9.49,9.49,0,0,1,46.89,27.9Zm-4.45-15a15.29,15.29,0,0,1,3.75,4A8.81,8.81,0,0,1,45,19.58v.11A25,25,0,0,1,42.44,12.9Z"/><path class="cls-2" d="M65.65,7.74H70.1V0h2.35V7.74H79V8.91H72.45v2.81a19.1,19.1,0,0,0,.11,3.75c.08.94.32,2.47.71,4.58A14,14,0,0,0,75,13.13V11h2.34v1.41q0,6.09-3.4,9.73a6.39,6.39,0,0,0,3.4,2.93l1.06-6.8h.47l-.59,6.56.7.35v3.64a11.56,11.56,0,0,1-6.8-4.93c-1.25,1.1-2.93,2.58-5,4.46H65.88a27,27,0,0,0,5.63-6.1A40.11,40.11,0,0,1,70.1,11.49V8.91H65.65v6.33a21.27,21.27,0,0,0,3.52-2l.23.11a19.88,19.88,0,0,1-3.75,3.52v8.91q-.12,2-3.28,2.81c-.16-.47-.4-.58-.71-.35l-2,.24-.12-.36q4.23-1.05,3.75-2.81V18.05a13.36,13.36,0,0,1-4,1.18,4,4,0,0,0-.24-3.29,8.58,8.58,0,0,0,4.22-.11V8.91H59.08V7.74H63.3V2.81a38.39,38.39,0,0,1-4.1.24h0a.35.35,0,0,0-.12-.24A27.64,27.64,0,0,0,66.82,0,17.07,17.07,0,0,1,69.4,2.11a32,32,0,0,1-3.75.47Zm11-1.64A18.78,18.78,0,0,1,74.56.82L74.68.7a25,25,0,0,1,3.16,3.05A8.19,8.19,0,0,1,76.67,6.1Z"/><path class="cls-2" d="M92.26.47h2.58A27.94,27.94,0,0,1,93,8.09h.59v20.4H91.44V10.9c-.63,1.1-1.21,2.11-1.76,3H89Q91.91,8.79,92.26.47Zm3.28.35h2V2.46h1.53V.94h2.11V15.83H99.06V14.07H97.53V28.49h-2Zm3.52,2.81H97.53v4h1.53Zm0,5.16H97.53V12.9h1.53ZM108.32.94V25.79q0,1.76-3.63,2.81a1,1,0,0,0-1.06-.47l-1.29.24-.12-.24c2.66-.46,4-1.25,4-2.34V14.18h-1.76v1.65h-2V.94h2V2.46h1.76V.94Zm-3.87,2.81V7.62h1.76V3.75Zm1.76,5.16h-1.76v3.87h1.76Z"/></g></g></g></svg>